<svg xmlns="http://www.w3.org/2000/svg" width="240" height="140" viewBox="0 0 240 140" role="img" aria-labelledby="title desc">
  <title id="title">모객 픽토그램</title>
  <desc id="desc">로봇이 고객에게 접근해 안내와 인터랙션 수행</desc>
  <rect width="240" height="140" fill="#fff0f6"/>
  <rect x="46" y="70" width="54" height="31" rx="7" fill="#ffffff" stroke="#2856b6" stroke-width="6"/>
  <circle cx="59" cy="106" r="7" fill="#1f2a44"/>
  <circle cx="88" cy="106" r="7" fill="#1f2a44"/>
  <path d="M73 70V52h21" stroke="#2856b6" stroke-width="6" stroke-linecap="round" stroke-linejoin="round"/>
  <circle cx="148" cy="45" r="17" fill="#d83f87"/>
  <path d="M148 68v27M129 120c5-16 14-23 19-23s14 7 19 23" stroke="#d83f87" stroke-width="7" stroke-linecap="round"/>
  <circle cx="188" cy="57" r="13" fill="#2856b6"/>
  <path d="M188 75v21M174 119c4-12 10-18 14-18s10 6 14 18" stroke="#2856b6" stroke-width="6" stroke-linecap="round"/>
  <path d="M103 54c11-10 25-15 43-15M104 65c17-8 33-8 48 0" fill="none" stroke="#1f2a44" stroke-width="5" stroke-linecap="round"/>
</svg>
