<svg
  xmlns="http://www.w3.org/2000/svg"
  width="24"
  height="24"
  viewBox="0 0 24 24"
  fill="none"
  color="#23459c"
  stroke="currentColor"
  stroke-width="1.4"
  stroke-linecap="round"
  stroke-linejoin="round"
>
  <!-- base -->
  <path d="M4 21h6" />
  <path d="M14 21h6" />
  <path d="M3 19.5l6-1.1 4 1.1 4-1.1 4 1.1" />
  <path d="M3 19.5v1.2l6 1.1 4-.9 4 .9 4-1.1v-1.2" />

  <!-- pedestal -->
  <path d="M11 19V14" />
  <path d="M15 19V14" />
  <path d="M11 14l2-2 2 2" />
  <path d="M11 19l2 .4 2-.4" />

  <!-- lower arm -->
  <path d="M13 12l3-3" />
  <path d="M15 14l4-4" />
  <path d="M16 9l3 1" />
  <path d="M13 12l2 .5" />

  <!-- elbow joint -->
  <path d="M18.2 9.8l1.8-1.4" />
  <path d="M19.8 8.4l1.2 1.8" />
  <path d="M21 10.2l-4.5 5" />
  <path d="M16.5 15.2a1.2 1.2 0 0 1-1.7 0" />

  <!-- upper arm -->
  <path d="M10.2 5.1l7.4 5.6" />
  <path d="M11.2 3.6l7.4 5.6" />
  <path d="M10.2 5.1a1.2 1.2 0 0 1 1-1.5" />
  <path d="M17.6 10.7a1.2 1.2 0 0 0 1-.1" />
  <path d="M11.4 4.8a.45.45 0 1 0 .01 0" />
  <path d="M17.8 9.3a.45.45 0 1 0 .01 0" />

  <!-- wrist / link -->
  <path d="M8 7.4l2.2-2.3" />
  <path d="M9.8 9.1l1.6-2.4" />
  <path d="M8 7.4l1.8 1.7" />

  <!-- gripper mount -->
  <path d="M6.8 6l1.2-1.6" />
  <path d="M8 4.4l2.2.7" />
  <path d="M6.8 6l1.7 2" />
  <path d="M8.5 8l1.3 1.1" />

  <!-- claw -->
  <path d="M6.8 6.9c-1.1-.3-1.9.1-2.6 1.1" />
  <path d="M4.2 8c-.9.9-1.6 2-2 3.2" />
  <path d="M2.2 11.2l.5.9" />
  <path d="M2.7 12.1c1-1.5 2.1-2.4 3.6-2.7" />
  <path d="M6.3 9.4c.8-.2 1.3-.7 1.4-1.4" />
  <path d="M7.7 8c.4.9.4 2.3 0 3.4" />
  <path d="M7.7 11.4c-.3.8-.9 1.4-1.2 1.8" />
  <path d="M6.5 13.2l.7.9" />
  <path d="M7.2 14.1l1.8-1.8" />
  <path d="M9 12.3c.5-.6.6-1.5.6-2.4" />

  <!-- small bolts on base -->
  <path d="M5.5 19.4h.01" />
  <path d="M9 19.1h.01" />
  <path d="M15.5 19.7h.01" />
  <path d="M18.2 19.4h.01" />

  <!-- control box -->
  <path d="M17 18.8v-1.7" />
  <path d="M16.5 17.1h1.2v1.1h-1.2z" />
</svg>
