
<svg xmlns="http://www.w3.org/2000/svg" width="24" height="24" viewBox="0 0 24 24" fill="none" stroke="#23459c" stroke-width="1.4" stroke-linecap="round" stroke-linejoin="round">
  <path d="M5 5.5 8 7h11" />
  <path d="M5 5.5 8 4h10.5l2.5 1.5" />
  <path d="M8 7v11.5" />
  <path d="M21 5.5v13H8l-3-1.5V5.5" />
  <path d="M5 17h16" />

  <path d="M11 14h7" />
  <path d="M10 15.5h8.5" />
  <path d="M10 15.5 11 17h7l.5-1.5" />

  <path d="M11.5 12.5v-2" />
  <path d="M10.5 10.5h2" />
  <circle cx="11.5" cy="13" r=".45" />

  <path d="M13.5 12.5c1.2 0 1.2-2.5 2.5-2.5s1.1 2.5 2.4 2.5" />
  <path d="M17.8 12.5h1" />

  <circle cx="5" cy="20" r="1.3" />
  <circle cx="20.5" cy="20" r="1.3" />
  <path d="M6.3 20h12.9" />
</svg>
